<svg width="764" height="657" viewBox="0 0 764 657" fill="none" xmlns="http://www.w3.org/2000/svg">
<path d="M227.357 148.143H204.143V171.357C204.143 172.589 203.654 173.769 202.783 174.64C201.912 175.511 200.731 176 199.5 176C198.269 176 197.088 175.511 196.217 174.64C195.346 173.769 194.857 172.589 194.857 171.357V148.143H171.643C170.411 148.143 169.231 147.654 168.36 146.783C167.489 145.912 167 144.731 167 143.5C167 142.269 167.489 141.088 168.36 140.217C169.231 139.346 170.411 138.857 171.643 138.857H194.857V115.643C194.857 114.411 195.346 113.231 196.217 112.36C197.088 111.489 198.269 111 199.5 111C200.731 111 201.912 111.489 202.783 112.36C203.654 113.231 204.143 114.411 204.143 115.643V138.857H227.357C228.589 138.857 229.769 139.346 230.64 140.217C231.511 141.088 232 142.269 232 143.5C232 144.731 231.511 145.912 230.64 146.783C229.769 147.654 228.589 148.143 227.357 148.143Z" fill="black"/>
<path d="M531 144C531 142.674 531.467 141.402 532.297 140.464C533.128 139.527 534.254 139 535.429 139H588.571C589.746 139 590.872 139.527 591.703 140.464C592.533 141.402 593 142.674 593 144C593 145.326 592.533 146.598 591.703 147.536C590.872 148.473 589.746 149 588.571 149H535.429C534.254 149 533.128 148.473 532.297 147.536C531.467 146.598 531 145.326 531 144Z" fill="black"/>
<rect x="5" y="84" width="754" height="568" stroke="black" stroke-width="10"/>
<rect x="10" y="230" width="744" height="417" fill="#EDA535"/>
<path d="M296 79V49C296 24.6995 276.301 5 252 5H147C122.699 5 103 24.6995 103 49V79" stroke="black" stroke-width="10"/>
<path d="M658 79V49C658 24.6995 638.301 5 614 5H509C484.699 5 465 24.6995 465 49V79" stroke="black" stroke-width="10"/>
<path d="M311.289 399.398C311.622 398.682 312.153 398.076 312.819 397.651C313.485 397.226 314.259 397 315.049 397H364.226L315.692 320.37C315.295 319.743 315.073 319.02 315.051 318.278C315.028 317.535 315.205 316.801 315.563 316.15C315.921 315.499 316.448 314.956 317.087 314.578C317.727 314.2 318.456 314 319.199 314H385.599C386.37 314 387.126 314.215 387.782 314.62C388.438 315.025 388.968 315.605 389.313 316.295L451.563 440.794C451.879 441.426 452.028 442.129 451.996 442.835C451.964 443.541 451.752 444.227 451.38 444.828C451.008 445.43 450.488 445.927 449.87 446.272C449.252 446.617 448.556 446.798 447.848 446.799H405.174L451.675 557.238C452.058 558.154 452.102 559.176 451.797 560.12C451.493 561.065 450.861 561.869 450.015 562.388C449.168 562.906 448.164 563.103 447.185 562.944C446.205 562.786 445.315 562.283 444.674 561.525L311.874 403.826C311.365 403.22 311.04 402.482 310.936 401.697C310.832 400.913 310.955 400.115 311.289 399.398Z" fill="black"/>
</svg>
