<svg width="1920" height="153" viewBox="0 0 1920 153" fill="none" xmlns="http://www.w3.org/2000/svg">
<line x1="1.09278e-07" y1="146.233" x2="1920" y2="146.234" stroke="url(#paint0_linear_799_1627)" stroke-width="2.5"/>
<path d="M1176.44 9.78516H1159.58C1159.11 9.78516 1158.74 10.1486 1158.74 10.5969C1158.74 11.0452 1159.11 11.4086 1159.58 11.4086H1164.63V13.8542C1164.63 14.3025 1165 14.666 1165.47 14.666C1165.93 14.666 1166.31 14.3025 1166.31 13.8542V11.4086H1176.44C1176.91 11.4086 1177.28 11.0452 1177.28 10.5969C1177.28 10.1486 1176.91 9.78516 1176.44 9.78516Z" fill="url(#paint1_linear_799_1627)" stroke="url(#paint2_linear_799_1627)"/>
<path d="M1203.82 9.78516H1187.84C1187.4 9.78516 1187.04 10.1486 1187.04 10.5969C1187.04 11.0452 1187.4 11.4086 1187.84 11.4086H1197.46V13.8542C1197.46 14.3025 1197.81 14.666 1198.25 14.666C1198.69 14.666 1199.05 14.3025 1199.05 13.8542V11.4086H1203.82C1204.26 11.4086 1204.62 11.0452 1204.62 10.5969C1204.62 10.1486 1204.26 9.78516 1203.82 9.78516Z" fill="url(#paint3_linear_799_1627)" stroke="url(#paint4_linear_799_1627)"/>
<path d="M1187.2 6.85662H1177.13C1176.67 6.85662 1176.31 6.41953 1176.31 5.88046C1176.31 5.34138 1176.67 4.9043 1177.13 4.9043H1187.2C1187.65 4.9043 1188.02 5.34138 1188.02 5.88046C1188.02 6.41953 1187.65 6.85662 1187.2 6.85662Z" fill="url(#paint5_linear_799_1627)" stroke="url(#paint6_linear_799_1627)"/>
<path d="M1178.76 1.07101C1178.36 0.886218 1177.9 1.07453 1177.72 1.49163L1176.03 5.4761C1175.99 5.5553 1175.97 5.64153 1175.96 5.72777L1162.64 145.541C1162.6 145.995 1162.92 146.398 1163.35 146.444C1163.38 146.448 1163.41 146.448 1163.43 146.448C1163.84 146.448 1164.18 146.129 1164.22 145.705L1177.53 6.02343L1179.17 2.15864C1179.34 1.74154 1179.16 1.2558 1178.76 1.07101H1178.76Z" fill="url(#paint7_linear_799_1627)" stroke="url(#paint8_linear_799_1627)"/>
<path d="M1201.68 145.541L1188.43 5.72695C1188.43 5.63543 1188.4 5.54391 1188.36 5.46119L1186.59 1.47671C1186.41 1.06312 1185.94 0.885364 1185.55 1.0772C1185.15 1.26903 1184.98 1.76005 1185.17 2.17364L1186.88 6.03142L1200.11 145.705C1200.16 146.131 1200.5 146.448 1200.9 146.448C1200.92 146.448 1200.95 146.448 1200.98 146.444C1201.41 146.398 1201.73 145.995 1201.68 145.541H1201.68Z" fill="url(#paint9_linear_799_1627)" stroke="url(#paint10_linear_799_1627)"/>
<path d="M1175.67 24.4279L1181.74 15.3306L1187.67 24.4208L1189 23.4891L1182.72 13.8675L1187.31 6.98791L1186 6.04205L1181.75 12.3938L1177.5 5.88086L1176.18 6.81255L1180.78 13.8569L1174.35 23.482L1175.67 24.4279Z" fill="url(#paint11_linear_799_1627)" stroke="url(#paint12_linear_799_1627)"/>
<path d="M1200.42 120.611L1184.33 107.262L1197.56 96.3737C1197.75 96.2157 1197.86 95.9795 1197.86 95.7346C1197.85 95.4879 1197.73 95.257 1197.53 95.1076L1184.52 85.2634L1195.1 77.2567C1195.34 77.0778 1195.45 76.7982 1195.42 76.5255C1195.45 76.2632 1195.35 75.9923 1195.13 75.8099L1184.45 67.0685L1194.06 59.279C1194.41 58.9924 1194.46 58.48 1194.17 58.1327C1194.12 58.0788 1194.07 58.0319 1194.02 57.9937L1194.1 57.8912L1184.56 50.5654L1192.59 44.3719C1192.79 44.2208 1192.9 43.9933 1192.91 43.7484C1192.91 43.5053 1192.81 43.2725 1192.62 43.1128L1184.48 36.2975L1191.2 30.533L1190.1 29.3086L1183.2 35.2294L1176.16 29.3312L1175.08 30.5678L1181.94 36.3114L1173.89 43.2152C1173.71 43.375 1173.6 43.6077 1173.61 43.8492C1173.61 44.0906 1173.73 44.3181 1173.92 44.4675L1181.87 50.5654L1172.37 57.8895L1172.43 57.9642C1172.36 58.0076 1172.3 58.0632 1172.24 58.1275C1171.95 58.4731 1171.99 58.9854 1172.35 59.2738L1181.85 67.0599L1171.13 75.7578C1170.91 75.9402 1170.81 76.2128 1170.83 76.4751C1170.8 76.746 1170.91 77.0274 1171.15 77.2063L1181.8 85.2616L1168.72 95.1545C1168.52 95.3039 1168.41 95.5348 1168.4 95.7797C1168.39 96.0246 1168.5 96.2608 1168.69 96.4189L1181.75 107.257L1165.86 120.335C1165.51 120.623 1165.47 121.137 1165.76 121.481C1165.93 121.672 1166.16 121.771 1166.4 121.771C1166.59 121.771 1166.78 121.709 1166.93 121.58L1183.04 108.323L1199.34 121.851C1199.5 121.981 1199.69 122.044 1199.88 122.044C1200.11 122.044 1200.35 121.946 1200.51 121.755C1200.81 121.413 1200.77 120.899 1200.42 120.609V120.611ZM1175.74 43.7918L1183.21 37.3778L1190.77 43.7015L1183.21 49.5268L1175.74 43.7901L1175.74 43.7918ZM1174.13 58.6086L1183.22 51.5988L1192.31 58.5825L1183.16 66.0056L1174.13 58.6103V58.6086ZM1172.88 76.4543L1183.15 68.1211L1193.38 76.4977L1183.16 84.2317L1172.88 76.4525V76.4543ZM1170.55 95.8266L1183.16 86.2881L1195.7 95.7763L1183.05 106.194L1170.55 95.8266Z" fill="url(#paint13_linear_799_1627)" stroke="url(#paint14_linear_799_1627)"/>
<path d="M1221.52 29.5979L1189.14 22.4942C1189.09 22.4812 1189.03 22.4756 1188.98 22.4756H1175.19C1175.14 22.4756 1175.08 22.4812 1175.03 22.4942L1142.8 29.5979C1142.38 29.689 1142.1 30.0962 1142.15 30.5407C1142.19 30.9851 1142.54 31.3217 1142.97 31.3217H1151.29V35.2697C1151.29 35.7513 1151.66 36.1418 1152.11 36.1418C1152.57 36.1418 1152.94 35.7513 1152.94 35.2697V31.3217H1156.39V35.2697C1156.39 35.7513 1156.76 36.1418 1157.22 36.1418C1157.68 36.1418 1158.05 35.7513 1158.05 35.2697V31.3217H1206.28V35.2697C1206.28 35.7513 1206.65 36.1418 1207.11 36.1418C1207.56 36.1418 1207.93 35.7513 1207.93 35.2697V31.3217H1211.38V35.2697C1211.38 35.7513 1211.76 36.1418 1212.21 36.1418C1212.67 36.1418 1213.04 35.7513 1213.04 35.2697V31.3217H1221.36C1221.78 31.3217 1222.14 30.9833 1222.18 30.5388C1222.23 30.0944 1221.94 29.6871 1221.53 29.596L1221.52 29.5979ZM1150.96 29.5793L1175.28 24.218H1188.89L1213.33 29.5793H1150.96Z" fill="url(#paint15_linear_799_1627)" stroke="url(#paint16_linear_799_1627)"/>
<path d="M718.608 62.1536L718.646 52.2549C718.646 52.197 718.646 52.1391 718.666 52.0812V52.0426C718.685 52.004 718.685 51.9654 718.704 51.9268C718.724 51.8882 718.724 51.8689 718.724 51.8496C718.724 51.8304 718.743 51.7918 718.762 51.7532L718.801 51.6953C718.801 51.676 718.801 51.676 718.82 51.676L718.878 51.5795H718.897L719.013 51.4444H719.052L719.148 51.3673L719.206 51.3287L719.302 51.2708H719.36L719.515 51.2129H772.192C772.636 51.2129 773.022 51.4637 773.234 51.8496L814.179 132.158L814.218 132.216C814.218 132.236 814.218 132.236 814.237 132.255C814.257 132.293 814.257 132.332 814.276 132.371V132.409C814.295 132.467 814.314 132.506 814.314 132.564V132.757C814.295 132.795 814.295 132.834 814.295 132.872V132.93C814.295 132.969 814.276 132.988 814.276 133.027C814.257 133.046 814.257 133.065 814.257 133.085L814.199 133.181C814.199 133.2 814.179 133.2 814.179 133.22C814.179 133.239 814.16 133.239 814.16 133.258L814.121 133.316C814.102 133.335 814.102 133.355 814.083 133.355L813.967 133.49L809.163 138.121C808.931 138.314 808.642 138.429 808.352 138.429H758.26C757.817 138.429 757.431 138.198 757.218 137.812L738.868 101.961V102.906C738.888 105.086 737.768 107.132 735.916 108.29V140.127H804.724C807.233 140.127 809.278 142.173 809.278 144.681V146.379C809.278 147.016 808.757 147.537 808.121 147.537H729.664C729.027 147.537 728.506 147.016 728.506 146.379V141.343C728.506 141.324 728.506 141.324 728.487 141.324V107.981C726.944 106.765 726.056 104.913 726.056 102.945V76.9726L718.724 62.6938C718.646 62.5202 718.608 62.3465 718.608 62.1536ZM784.56 131.522L774.257 111.3H763.219L773.523 131.522H784.56ZM798.029 131.522L787.725 111.3H776.862L787.165 131.522H798.029ZM791.526 92.7758H780.894L789.153 108.984H799.785L791.526 92.7758ZM780.914 71.9365H770.282L779.717 90.4603H790.349L780.914 71.9365ZM747.378 53.4126L755.636 69.621H766.5L758.241 53.4126H747.378ZM733.736 53.4126L741.994 69.621H753.031L744.773 53.4126H733.736ZM751.179 92.7758H741.743L750.002 108.984H759.437L751.179 92.7758ZM762.042 108.984H773.08L764.821 92.7758H753.784L762.042 108.984ZM740.566 90.4603H750.002L740.566 71.9365H731.131L740.566 90.4603ZM752.607 90.4603H763.644L754.208 71.9365H743.171L752.607 90.4603ZM756.813 71.9365L766.249 90.4603H777.112L767.677 71.9365H756.813ZM778.289 92.7758H767.426L775.684 108.984H786.548L778.289 92.7758ZM760.615 111.3H751.179L761.464 131.522H770.918L760.615 111.3ZM729.934 69.621H739.389L731.131 53.4126H721.695L729.934 69.621ZM771.478 53.4126H760.846L769.105 69.621H779.737L771.478 53.4126ZM800.962 111.3H790.33L800.634 131.522H811.266L800.962 111.3ZM733.601 109.254H731.903L731.69 109.216H731.517L731.131 109.158L731.015 109.119L730.803 109.081V140.166H733.601V109.254ZM806.963 145.26V144.72C806.963 143.485 805.959 142.482 804.724 142.482H730.822V145.26H806.963ZM728.371 102.945C728.371 104.353 729.085 105.646 730.282 106.399C730.938 106.823 731.69 107.035 732.462 107.035H732.694C733.234 107.016 733.755 106.881 734.237 106.63C735.665 105.974 736.572 104.527 736.553 102.964V97.4647L734.623 93.702L728.371 81.4878V102.945ZM728.236 76.1622L734.7 88.8009L758.974 136.153H807.87L810.282 133.837H760.769C760.325 133.837 759.939 133.606 759.727 133.22L720.943 57.0402V61.8834L728.236 76.1622Z" fill="url(#paint17_linear_799_1627)"/>
<path d="M820.48 30.0686C814.845 30.0686 810.292 25.5149 810.292 19.8805C810.292 14.2462 814.845 9.69238 820.48 9.69238C826.114 9.69238 830.668 14.2462 830.668 19.8805C830.649 25.4956 826.095 30.0493 820.48 30.0686ZM820.48 12.0079C816.138 12.0079 812.607 15.539 812.607 19.8805C812.607 24.222 816.138 27.7532 820.48 27.7532C824.821 27.7532 828.352 24.222 828.352 19.8805C828.352 15.539 824.821 12.0079 820.48 12.0079Z" fill="url(#paint18_linear_799_1627)"/>
<path d="M807.303 17.8164H803V20.1319H807.303V17.8164Z" fill="url(#paint19_linear_799_1627)"/>
<path d="M837.982 17.8164H833.679V20.1319H837.982V17.8164Z" fill="url(#paint20_linear_799_1627)"/>
<path d="M821.77 1.5L819.454 1.48379L819.424 5.78673L821.739 5.80294L821.77 1.5Z" fill="url(#paint21_linear_799_1627)"/>
<path d="M821.557 32.1807L819.241 32.1645L819.211 36.4674L821.527 36.4836L821.557 32.1807Z" fill="url(#paint22_linear_799_1627)"/>
<path d="M811.984 8.84961L808.942 5.80743L807.305 7.44448L810.347 10.4867L811.984 8.84961Z" fill="url(#paint23_linear_799_1627)"/>
<path d="M833.68 30.5176L830.638 27.4754L829 29.1124L832.043 32.1546L833.68 30.5176Z" fill="url(#paint24_linear_799_1627)"/>
<path d="M833.75 7.54492L832.125 5.8963L829.061 8.91696L830.686 10.5656L833.75 7.54492Z" fill="url(#paint25_linear_799_1627)"/>
<path d="M811.91 29.083L810.285 27.4344L807.221 30.455L808.846 32.1037L811.91 29.083Z" fill="url(#paint26_linear_799_1627)"/>
<path d="M1286.99 113.149V96.8503L1300.82 73.7603C1300.93 73.5634 1301 73.3386 1301 73.1091C1301 72.8795 1300.95 72.6533 1300.83 72.4535C1300.72 72.2538 1300.55 72.0876 1300.36 71.9719C1300.16 71.8562 1299.93 71.7951 1299.7 71.7949H1255.04C1254.82 71.7953 1254.6 71.8537 1254.4 71.9644C1254.21 72.0752 1254.05 72.2346 1253.93 72.4271L1228.39 115.089C1228.27 115.286 1228.21 115.51 1228.21 115.74C1228.2 115.969 1228.26 116.196 1228.38 116.395C1228.49 116.595 1228.65 116.761 1228.85 116.877C1229.05 116.992 1229.27 117.053 1229.5 117.053H1274.16C1274.39 117.053 1274.61 116.995 1274.8 116.884C1275 116.774 1275.16 116.614 1275.28 116.422L1276.48 114.407C1276.52 114.417 1276.56 114.423 1276.6 114.428V130.541H1257.04C1256.7 130.541 1256.37 130.677 1256.12 130.921C1255.88 131.164 1255.74 131.495 1255.74 131.839V139.629H1250.02V138.613C1250.02 138.268 1249.89 137.938 1249.64 137.695C1249.4 137.451 1249.07 137.314 1248.72 137.314H1245.57V127.484C1245.57 127.139 1245.43 126.809 1245.19 126.566C1244.95 126.322 1244.62 126.185 1244.27 126.185H1241.14V123.032C1241.14 122.688 1241 122.357 1240.76 122.114C1240.52 121.87 1240.19 121.734 1239.84 121.734H1235.39C1235.05 121.734 1234.72 121.87 1234.47 122.114C1234.23 122.357 1234.09 122.688 1234.09 123.032V126.185H1224.92V123.032C1224.92 122.861 1224.88 122.693 1224.82 122.535C1224.75 122.377 1224.66 122.234 1224.54 122.114C1224.41 121.993 1224.27 121.897 1224.11 121.832C1223.96 121.767 1223.79 121.734 1223.62 121.734H1219.17C1218.82 121.734 1218.49 121.87 1218.25 122.114C1218 122.357 1217.87 122.688 1217.87 123.032V126.185H1214.74C1214.39 126.185 1214.06 126.322 1213.82 126.566C1213.57 126.809 1213.44 127.139 1213.44 127.484V145.29C1213.44 145.635 1213.57 145.965 1213.82 146.208C1214.06 146.452 1214.39 146.589 1214.74 146.589H1244.27C1244.62 146.589 1244.95 146.452 1245.19 146.208C1245.43 145.965 1245.57 145.635 1245.57 145.29V144.363H1248.72C1249.07 144.363 1249.4 144.226 1249.64 143.983C1249.89 143.739 1250.02 143.409 1250.02 143.064V142.226H1257.04C1257.39 142.226 1257.72 142.089 1257.96 141.846C1258.2 141.602 1258.34 141.272 1258.34 140.928V133.137H1276.61V135.089H1271.99C1271.82 135.089 1271.65 135.122 1271.49 135.187C1271.33 135.252 1271.19 135.348 1271.07 135.469C1270.95 135.589 1270.85 135.732 1270.79 135.89C1270.72 136.048 1270.69 136.216 1270.69 136.387V139.54H1266.47C1266.13 139.54 1265.8 139.677 1265.55 139.921C1265.31 140.164 1265.17 140.494 1265.17 140.839V145.29C1265.17 145.635 1265.31 145.965 1265.55 146.208C1265.8 146.452 1266.13 146.589 1266.47 146.589H1296.01C1296.35 146.589 1296.68 146.452 1296.93 146.208C1297.17 145.965 1297.31 145.635 1297.31 145.29V140.839C1297.31 140.494 1297.17 140.164 1296.93 139.921C1296.68 139.677 1296.35 139.54 1296.01 139.54H1291.79V136.387C1291.79 136.216 1291.76 136.048 1291.69 135.89C1291.63 135.732 1291.53 135.589 1291.41 135.469C1291.29 135.348 1291.15 135.252 1290.99 135.187C1290.83 135.122 1290.66 135.089 1290.49 135.089H1285.88V114.425C1286.19 114.382 1286.47 114.229 1286.68 113.995C1286.88 113.76 1286.99 113.46 1286.99 113.149ZM1236.69 124.33H1238.54V126.185H1236.69V124.33ZM1220.46 124.33H1222.32V126.185H1220.46V124.33ZM1242.97 143.992H1216.03V128.782H1242.97V143.992ZM1247.42 141.766H1245.57V139.911H1247.42V141.766ZM1284.4 111.851H1278.09V111.723L1284.4 101.187V111.851ZM1246.56 114.457L1250.12 108.521H1261.86L1258.3 114.457H1246.56ZM1251.67 105.924L1255.22 99.9888H1266.96L1263.41 105.924H1251.67ZM1240.46 99.9888H1252.2L1248.64 105.924H1236.9L1240.46 99.9888ZM1245.56 91.4564H1257.31L1253.75 97.392H1242.01L1245.56 91.4564ZM1250.67 82.9241H1262.41L1258.86 88.8596H1247.12L1250.67 82.9241ZM1282.29 74.3917L1278.74 80.3273H1266.99L1270.55 74.3917H1282.29ZM1277.18 82.9241L1273.63 88.8596H1261.89L1265.44 82.9241H1277.18ZM1288.76 88.8596H1276.65L1280.21 82.9241H1292.3L1288.76 88.8596ZM1283.65 97.392H1271.55L1275.11 91.4564H1287.2L1283.65 97.392ZM1268.52 97.392H1256.78L1260.33 91.4564H1272.07L1268.52 97.392ZM1269.99 99.9888H1282.09L1278.53 105.924H1266.44L1269.99 99.9888ZM1293.86 80.3273H1281.76L1285.31 74.3917H1297.41L1293.86 80.3273ZM1255.78 74.3917H1267.52L1263.97 80.3273H1252.23L1255.78 74.3917ZM1235.35 108.521H1247.09L1243.54 114.457H1231.79L1235.35 108.521ZM1273.43 114.457H1261.33L1264.88 108.521H1276.98L1273.43 114.457ZM1294.71 143.992H1267.77V142.137H1294.71V143.992ZM1289.19 139.54H1273.29V137.685H1289.2L1289.19 139.54ZM1279.2 135.089V114.448H1283.28V135.089H1279.2Z" fill="url(#paint27_linear_799_1627)"/>
<path d="M1219.19 133.79C1218.84 133.79 1218.51 133.927 1218.27 134.17C1218.03 134.414 1217.89 134.744 1217.89 135.088V139.726C1217.89 140.07 1218.03 140.4 1218.27 140.644C1218.51 140.887 1218.84 141.024 1219.19 141.024C1219.53 141.024 1219.86 140.887 1220.11 140.644C1220.35 140.4 1220.49 140.07 1220.49 139.726V135.088C1220.49 134.918 1220.45 134.749 1220.39 134.591C1220.32 134.434 1220.23 134.291 1220.11 134.17C1219.98 134.05 1219.84 133.954 1219.68 133.889C1219.53 133.823 1219.36 133.79 1219.19 133.79Z" fill="url(#paint28_linear_799_1627)"/>
<path d="M1231.08 135.088H1229.75L1230.73 132.269C1230.84 131.944 1230.82 131.589 1230.67 131.281C1230.52 130.973 1230.25 130.737 1229.93 130.624C1229.6 130.512 1229.25 130.532 1228.94 130.681C1228.63 130.83 1228.39 131.095 1228.28 131.419L1226.7 135.963C1226.63 136.159 1226.61 136.368 1226.64 136.573C1226.67 136.778 1226.75 136.973 1226.87 137.141C1226.99 137.31 1227.15 137.448 1227.33 137.542C1227.52 137.637 1227.72 137.687 1227.93 137.687H1229.26L1228.28 140.506C1228.22 140.667 1228.2 140.838 1228.21 141.008C1228.22 141.178 1228.26 141.344 1228.34 141.498C1228.41 141.651 1228.51 141.788 1228.64 141.902C1228.77 142.015 1228.92 142.102 1229.08 142.158C1229.22 142.206 1229.36 142.231 1229.5 142.232C1229.77 142.232 1230.04 142.148 1230.26 141.991C1230.48 141.835 1230.64 141.614 1230.73 141.359L1232.31 136.814C1232.37 136.619 1232.39 136.41 1232.37 136.205C1232.34 136 1232.26 135.805 1232.14 135.636C1232.02 135.467 1231.86 135.33 1231.68 135.235C1231.49 135.14 1231.29 135.09 1231.08 135.091V135.088Z" fill="url(#paint29_linear_799_1627)"/>
<mask id="mask0_799_1627" style="mask-type:luminance" maskUnits="userSpaceOnUse" x="815" y="64" width="85" height="85">
<path d="M815.422 64.4835H899.537V148.599H815.422V64.4835Z" fill="white"/>
</mask>
<g mask="url(#mask0_799_1627)">
<path d="M863.241 145.479H826.555V84.3688C826.555 82.6557 827.649 81.134 829.272 80.5883L863.241 69.1703V145.479Z" stroke="url(#paint30_linear_799_1627)" stroke-width="2.5" stroke-miterlimit="10" stroke-linecap="round" stroke-linejoin="round"/>
<path d="M883.888 137.813V145.479H863.24V104.076H886.022C887.532 104.076 888.754 105.299 888.754 106.809V128.724" stroke="url(#paint31_linear_799_1627)" stroke-width="2.5" stroke-miterlimit="10" stroke-linecap="round" stroke-linejoin="round"/>
<path d="M863.24 145.479H896.451C897.474 145.479 898.304 144.649 898.304 143.626V137.813H863.24V145.479Z" stroke="url(#paint32_linear_799_1627)" stroke-width="2.5" stroke-miterlimit="10" stroke-linecap="round" stroke-linejoin="round"/>
<path d="M890.749 128.428H891.445C895.233 128.428 898.305 131.5 898.305 135.289V137.813H883.889V135.289C883.889 131.5 886.96 128.428 890.749 128.428Z" stroke="url(#paint33_linear_799_1627)" stroke-width="2.5" stroke-miterlimit="10" stroke-linecap="round" stroke-linejoin="round"/>
<path d="M875.997 104.076H863.24V69.1707L874.781 80.3263C875.559 81.0777 875.997 82.1127 875.997 83.1941V98.268" stroke="url(#paint34_linear_799_1627)" stroke-width="2.5" stroke-miterlimit="10" stroke-linecap="round" stroke-linejoin="round"/>
<path d="M835.529 78.4863V70.1652C835.529 68.7507 836.676 67.6039 838.092 67.6039H838.352C839.766 67.6039 840.913 68.7507 840.913 70.1652V76.6759" stroke="url(#paint35_linear_799_1627)" stroke-width="2.5" stroke-miterlimit="10" stroke-linecap="round" stroke-linejoin="round"/>
<path d="M863.241 78.4837L835.529 87.7988" stroke="url(#paint36_linear_799_1627)" stroke-width="2.5" stroke-miterlimit="10" stroke-linecap="round" stroke-linejoin="round"/>
<path d="M863.241 87.3529L835.529 96.668" stroke="url(#paint37_linear_799_1627)" stroke-width="2.5" stroke-miterlimit="10" stroke-linecap="round" stroke-linejoin="round"/>
<path d="M863.241 96.221L835.529 105.536" stroke="url(#paint38_linear_799_1627)" stroke-width="2.5" stroke-miterlimit="10" stroke-linecap="round" stroke-linejoin="round"/>
<path d="M863.241 105.089L835.529 114.404" stroke="url(#paint39_linear_799_1627)" stroke-width="2.5" stroke-miterlimit="10" stroke-linecap="round" stroke-linejoin="round"/>
<path d="M840.104 121.735L835.529 123.272" stroke="url(#paint40_linear_799_1627)" stroke-width="2.5" stroke-miterlimit="10" stroke-linecap="round" stroke-linejoin="round"/>
<path d="M863.24 113.956L845.621 119.879" stroke="url(#paint41_linear_799_1627)" stroke-width="2.5" stroke-miterlimit="10" stroke-linecap="round" stroke-linejoin="round"/>
<path d="M850.132 145.479H835.529V135.011C835.529 134.199 836.07 133.487 836.851 133.269L848.32 130.067C849.23 129.813 850.132 130.498 850.132 131.443V145.479Z" stroke="url(#paint42_linear_799_1627)" stroke-width="2.5" stroke-miterlimit="10" stroke-linecap="round" stroke-linejoin="round"/>
<path d="M881.953 114.239H869.869C869.402 114.239 869.023 113.861 869.023 113.394V110.428C869.023 109.96 869.402 109.582 869.869 109.582H881.953C882.42 109.582 882.799 109.96 882.799 110.428V113.394C882.799 113.861 882.42 114.239 881.953 114.239Z" stroke="url(#paint43_linear_799_1627)" stroke-width="2.5" stroke-miterlimit="10" stroke-linecap="round" stroke-linejoin="round"/>
<path d="M881.953 123.61H869.869C869.402 123.61 869.023 123.232 869.023 122.764V119.799C869.023 119.331 869.402 118.953 869.869 118.953H881.953C882.42 118.953 882.799 119.331 882.799 119.799V122.764C882.799 123.232 882.42 123.61 881.953 123.61Z" stroke="url(#paint44_linear_799_1627)" stroke-width="2.5" stroke-miterlimit="10" stroke-linecap="round" stroke-linejoin="round"/>
<path d="M873.866 133.073H869.869C869.402 133.073 869.023 132.695 869.023 132.227V129.262C869.023 128.794 869.402 128.416 869.869 128.416H873.866C874.333 128.416 874.712 128.794 874.712 129.262V132.227C874.712 132.695 874.333 133.073 873.866 133.073Z" stroke="url(#paint45_linear_799_1627)" stroke-width="2.5" stroke-miterlimit="10" stroke-linecap="round" stroke-linejoin="round"/>
<path d="M842.83 131.6V145.479" stroke="url(#paint46_linear_799_1627)" stroke-width="2.5" stroke-miterlimit="10" stroke-linecap="round" stroke-linejoin="round"/>
</g>
<path d="M622.786 139.894H628.72C628.758 137.537 630.392 135.561 632.588 135.003V114.573C632.588 114.525 632.591 114.478 632.596 114.432L625.934 107.77C625.441 107.277 625.441 106.478 625.934 105.985C626.427 105.493 627.226 105.492 627.719 105.985L648.783 127.049C649.022 127.288 649.338 127.419 649.675 127.419C650.012 127.419 650.329 127.288 650.568 127.049C650.806 126.811 650.937 126.494 650.937 126.157C650.937 125.82 650.806 125.503 650.568 125.264L623.678 98.3752C623.186 97.8832 622.386 97.8834 621.894 98.375C621.402 98.8672 621.402 99.668 621.894 100.16L623.913 102.179C624.406 102.672 624.406 103.471 623.913 103.964C623.42 104.456 622.621 104.456 622.128 103.964L620.109 101.944C618.633 100.468 618.633 98.0664 620.109 96.5903C621.585 95.1144 623.987 95.1144 625.463 96.5903L652.352 123.48C653.068 124.195 653.461 125.146 653.461 126.157C653.461 127.168 653.067 128.119 652.352 128.834C651.637 129.549 650.687 129.943 649.675 129.943C648.664 129.943 647.713 129.549 646.998 128.834L635.111 116.947V135.003C637.307 135.561 638.941 137.537 638.979 139.894H654.564C654.602 137.537 656.237 135.56 658.432 135.003V114.573C658.432 114.525 658.435 114.478 658.44 114.432L645.953 101.945C644.477 100.469 644.477 98.0668 645.953 96.5906C647.429 95.1148 649.831 95.1148 651.307 96.5906L678.197 123.48C678.912 124.195 679.306 125.146 679.306 126.157C679.306 127.168 678.912 128.119 678.197 128.834C677.482 129.549 676.531 129.943 675.52 129.943C674.509 129.943 673.558 129.549 672.843 128.834L660.956 116.947V135.003C663.151 135.561 664.786 137.537 664.824 139.894H680.409C680.447 137.537 682.081 135.56 684.277 135.003V114.573C684.277 114.525 684.28 114.478 684.285 114.432L671.798 101.945C670.322 100.469 670.322 98.0666 671.798 96.5904C673.274 95.1146 675.676 95.1146 677.152 96.5904L697.256 116.694C697.749 117.187 697.749 117.986 697.256 118.479C696.763 118.972 695.964 118.972 695.471 118.479L675.367 98.3752C674.875 97.8832 674.075 97.8834 673.583 98.375C673.091 98.8672 673.091 99.668 673.583 100.16L700.472 127.049C700.711 127.288 701.027 127.419 701.364 127.419C701.702 127.419 702.018 127.288 702.257 127.049C702.495 126.811 702.626 126.494 702.626 126.157C702.626 125.82 702.495 125.503 702.257 125.264L699.278 122.285C698.785 121.792 698.785 120.993 699.278 120.501C699.771 120.008 700.57 120.008 701.062 120.501L704.042 123.48C704.757 124.195 705.15 125.146 705.15 126.157C705.15 127.168 704.756 128.119 704.042 128.834C703.326 129.549 702.376 129.943 701.364 129.943C700.353 129.943 699.403 129.549 698.687 128.834L686.801 116.947V135.003C688.996 135.561 690.63 137.537 690.668 139.894H701.364C703.452 139.894 705.15 141.592 705.15 143.68C705.15 145.767 703.452 147.466 701.364 147.466H622.786C620.698 147.466 619 145.767 619 143.68C619 141.592 620.698 139.894 622.786 139.894ZM674.628 127.049C674.866 127.288 675.183 127.419 675.52 127.419C675.857 127.419 676.174 127.288 676.412 127.049C676.651 126.811 676.782 126.494 676.782 126.157C676.782 125.82 676.651 125.503 676.412 125.264L649.523 98.3752C649.277 98.129 648.954 98.0062 648.63 98.0062C648.307 98.0062 647.984 98.1292 647.738 98.375C647.246 98.8672 647.246 99.668 647.738 100.16L674.628 127.049ZM633.85 137.37C632.44 137.37 631.288 138.495 631.243 139.894H636.456C636.412 138.495 635.26 137.37 633.85 137.37ZM659.694 137.37C658.284 137.37 657.132 138.495 657.087 139.894H662.301C662.256 138.495 661.104 137.37 659.694 137.37ZM685.539 137.37C684.129 137.37 682.977 138.495 682.932 139.894H688.145C688.101 138.495 686.949 137.37 685.539 137.37ZM622.786 144.942H701.364C702.06 144.942 702.626 144.376 702.626 143.68C702.626 142.984 702.06 142.418 701.364 142.418H622.786C622.09 142.418 621.524 142.984 621.524 143.68C621.524 144.376 622.09 144.942 622.786 144.942Z" fill="url(#paint47_linear_799_1627)"/>
<path d="M1146.5 120.944H1145.22L1142.66 70.926C1142.66 70.5859 1142.52 70.2597 1142.28 70.0191C1142.04 69.7786 1141.71 69.6435 1141.37 69.6435H1133.68C1133.34 69.6435 1133.01 69.7786 1132.77 70.0191C1132.53 70.2597 1132.4 70.5859 1132.4 70.926L1129.9 120.944H1127.18L1124.7 88.7784C1124.67 88.5159 1124.56 88.2695 1124.38 88.0731C1124.72 87.1639 1124.79 86.1756 1124.59 85.2268C1124.38 84.278 1123.9 83.4093 1123.21 82.725C1124.04 81.7338 1124.54 80.5181 1124.66 79.2363C1124.78 77.9544 1124.52 76.6657 1123.89 75.538C1123.27 74.4102 1122.33 73.4956 1121.18 72.9132C1120.03 72.3308 1118.73 72.1076 1117.46 72.2726C1116.74 70.7274 1115.59 69.4188 1114.16 68.4996C1112.72 67.5805 1111.06 67.0888 1109.35 67.0821C1107.65 67.0754 1105.98 67.5539 1104.53 68.4617C1103.09 69.3695 1101.94 70.669 1101.21 72.2085C1099.54 72.2953 1097.95 72.9311 1096.68 74.0168C1095.49 73.5176 1094.19 73.3577 1092.92 73.5551C1092.26 72.376 1091.29 71.3934 1090.12 70.7066C1088.96 70.0198 1087.63 69.6532 1086.27 69.6437C1084.92 69.6342 1083.59 69.9822 1082.41 70.6526C1081.23 71.323 1080.26 72.292 1079.57 73.4617C1078.89 74.6314 1078.53 75.9605 1078.53 77.3146C1078.52 78.6687 1078.87 80 1079.55 81.1739C1080.22 82.3479 1081.2 83.3229 1082.37 84.0006C1083.54 84.6783 1084.87 85.0346 1086.23 85.0335C1086.56 85.0329 1086.9 85.0072 1087.23 84.9566C1087.89 86.1452 1088.87 87.1349 1090.04 87.8245C1091.22 88.5141 1092.56 88.8787 1093.92 88.881C1095.73 88.8855 1097.48 88.2392 1098.86 87.0599C1100.35 87.6357 1101.98 87.7327 1103.53 87.3374C1105.08 86.9421 1106.47 86.0741 1107.5 84.854C1109.83 85.3338 1112.25 84.8726 1114.24 83.5715C1114.46 83.7581 1114.7 83.9294 1114.95 84.0845C1114.66 84.7044 1114.48 85.3782 1114.45 86.0656C1114.42 86.7531 1114.52 87.4401 1114.76 88.0859C1114.59 88.2823 1114.47 88.5287 1114.44 88.7913L1111.97 120.944H1106.75V118.379H1108.03C1108.37 118.379 1108.7 118.243 1108.94 118.003C1109.18 117.762 1109.31 117.436 1109.31 117.096V111.966C1109.31 111.626 1109.18 111.3 1108.94 111.059C1108.7 110.819 1108.37 110.684 1108.03 110.684H1092.64V108.119H1101.62C1101.96 108.119 1102.28 107.983 1102.52 107.743C1102.76 107.502 1102.9 107.176 1102.9 106.836V99.141C1102.9 98.8009 1102.76 98.4747 1102.52 98.2342C1102.28 97.9937 1101.96 97.8585 1101.62 97.8585H1091.36C1091.02 97.8585 1090.69 97.9937 1090.45 98.2342C1090.21 98.4747 1090.07 98.8009 1090.07 99.141V110.684H1087.51V99.141C1087.51 98.8009 1087.37 98.4747 1087.13 98.2342C1086.89 97.9937 1086.57 97.8585 1086.23 97.8585H1075.97C1075.63 97.8585 1075.3 97.9937 1075.06 98.2342C1074.82 98.4747 1074.68 98.8009 1074.68 99.141V106.836C1074.68 107.176 1074.82 107.502 1075.06 107.743C1075.3 107.983 1075.63 108.119 1075.97 108.119H1084.94V110.684H1069.55C1069.21 110.684 1068.89 110.819 1068.65 111.059C1068.41 111.3 1068.27 111.626 1068.27 111.966V117.096C1068.27 117.436 1068.41 117.762 1068.65 118.003C1068.89 118.243 1069.21 118.379 1069.55 118.379H1070.84V145.311C1070.84 145.651 1070.97 145.977 1071.21 146.218C1071.45 146.458 1071.78 146.594 1072.12 146.594H1146.5C1146.84 146.594 1147.17 146.458 1147.41 146.218C1147.65 145.977 1147.79 145.651 1147.79 145.311V122.226C1147.79 121.886 1147.65 121.56 1147.41 121.319C1147.17 121.079 1146.84 120.944 1146.5 120.944ZM1092.64 100.424H1100.33V105.554H1092.64V100.424ZM1077.25 105.554V100.424H1084.94V105.554H1077.25ZM1140.16 72.2085L1140.28 74.7735H1134.77L1134.96 72.2085H1140.16ZM1134.64 77.3385H1140.41L1142.66 120.944H1132.52L1134.64 77.3385ZM1122.23 90.1635L1122.62 95.2935H1116.52L1116.92 90.1635H1122.23ZM1114.44 80.5832C1114.27 80.5685 1114.1 80.5882 1113.94 80.6411C1113.77 80.6939 1113.62 80.7789 1113.49 80.891C1112.66 81.6047 1111.66 82.0966 1110.59 82.3208C1109.52 82.545 1108.41 82.4944 1107.36 82.1735C1107.1 82.0879 1106.81 82.0917 1106.54 82.1843C1106.28 82.2769 1106.05 82.4533 1105.9 82.6865C1105.2 83.7557 1104.12 84.5246 1102.89 84.8425C1101.65 85.1604 1100.33 85.0044 1099.21 84.4051C1098.95 84.2695 1098.67 84.2211 1098.39 84.2675C1098.1 84.314 1097.85 84.4526 1097.65 84.6616C1097.06 85.2925 1096.32 85.7632 1095.49 86.0299C1094.67 86.2965 1093.79 86.3504 1092.94 86.1865C1092.09 86.0227 1091.3 85.6464 1090.63 85.0927C1089.97 84.5391 1089.45 83.826 1089.14 83.02C1089.02 82.7238 1088.8 82.481 1088.52 82.3389C1088.23 82.1967 1087.91 82.1652 1087.6 82.2505C1087.15 82.3873 1086.69 82.4607 1086.23 82.4685C1085.29 82.4722 1084.37 82.2198 1083.57 81.7388C1082.77 81.2578 1082.11 80.5664 1081.67 79.7394C1081.23 78.9125 1081.03 77.9815 1081.08 77.0473C1081.14 76.1131 1081.45 75.2112 1081.97 74.4392C1082.5 73.6673 1083.23 73.0546 1084.09 72.6677C1084.94 72.2808 1085.88 72.1342 1086.81 72.2439C1087.74 72.3537 1088.62 72.7155 1089.36 73.2902C1090.1 73.8649 1090.66 74.6306 1091 75.5045C1091.11 75.8007 1091.33 76.0435 1091.62 76.1857C1091.9 76.3279 1092.23 76.3594 1092.54 76.274C1092.99 76.1352 1093.45 76.0617 1093.92 76.056C1094.76 76.0663 1095.58 76.282 1096.32 76.6844C1096.57 76.8201 1096.86 76.8685 1097.14 76.822C1097.42 76.7756 1097.68 76.6369 1097.87 76.4279C1098.35 75.9099 1098.93 75.4956 1099.57 75.211C1100.22 74.9263 1100.91 74.7774 1101.62 74.7735H1101.89C1102.16 74.789 1102.44 74.7135 1102.67 74.5584C1102.9 74.4034 1103.08 74.1773 1103.17 73.9142C1103.61 72.6379 1104.45 71.5341 1105.55 70.7602C1106.66 69.9863 1107.98 69.5819 1109.33 69.6046C1110.69 69.6274 1111.99 70.0761 1113.07 70.8869C1114.16 71.6976 1114.95 72.829 1115.35 74.1194C1115.4 74.2842 1115.48 74.4372 1115.59 74.5694C1115.7 74.7016 1115.84 74.8103 1115.99 74.8889C1116.15 74.9542 1116.32 74.9878 1116.49 74.9878C1116.66 74.9878 1116.82 74.9542 1116.98 74.8889C1117.41 74.78 1117.85 74.7411 1118.29 74.7735C1119.11 74.7742 1119.91 75.0372 1120.57 75.5239C1121.23 76.0107 1121.72 76.6957 1121.96 77.4791C1122.2 78.2625 1122.19 79.1033 1121.92 79.8786C1121.65 80.6539 1121.14 81.3232 1120.47 81.7888C1120.28 81.9161 1120.14 82.0897 1120.04 82.2923C1119.94 82.4948 1119.9 82.7192 1119.92 82.943C1119.93 83.1693 1120.01 83.387 1120.14 83.574C1120.27 83.761 1120.44 83.9106 1120.65 84.0075C1121.09 84.2117 1121.46 84.5372 1121.73 84.9459C1121.99 85.3546 1122.13 85.8298 1122.14 86.316C1122.13 86.7661 1122.01 87.2077 1121.79 87.5985H1117.35C1117.13 87.2077 1117.01 86.7661 1117.01 86.316C1117.01 85.9705 1117.08 85.6288 1117.22 85.3115C1117.35 84.9941 1117.55 84.7076 1117.8 84.4692C1117.97 84.3088 1118.1 84.1044 1118.16 83.8782C1118.22 83.6521 1118.22 83.4129 1118.16 83.1867C1118.11 82.9673 1117.99 82.7663 1117.84 82.6042C1117.68 82.442 1117.48 82.3244 1117.26 82.2633C1116.5 82.0502 1115.83 81.6012 1115.34 80.9808C1115.1 80.7411 1114.78 80.5993 1114.44 80.5832ZM1116.31 97.8585H1122.83L1124.6 120.944H1114.54L1116.31 97.8585ZM1070.84 113.249H1106.75V115.814H1070.84V113.249ZM1073.4 118.379H1104.18V144.029H1101.62V135.051C1101.62 134.711 1101.48 134.385 1101.24 134.144C1101 133.904 1100.67 133.769 1100.33 133.769H1091.36C1091.02 133.769 1090.69 133.904 1090.45 134.144C1090.21 134.385 1090.07 134.711 1090.07 135.051V144.029H1087.51V135.051C1087.51 134.711 1087.37 134.385 1087.13 134.144C1086.89 133.904 1086.57 133.769 1086.23 133.769H1077.25C1076.91 133.769 1076.58 133.904 1076.34 134.144C1076.1 134.385 1075.97 134.711 1075.97 135.051V144.029H1073.4V118.379ZM1099.05 144.029H1092.64V136.334H1099.05V144.029ZM1084.94 144.029H1078.53V136.334H1084.94V144.029ZM1145.22 144.029H1106.75V123.509H1145.22V144.029Z" fill="url(#paint48_linear_799_1627)"/>
<path d="M1077.25 131.203H1100.33C1100.67 131.203 1101 131.068 1101.24 130.828C1101.48 130.587 1101.62 130.261 1101.62 129.921V122.226C1101.62 121.886 1101.48 121.56 1101.24 121.319C1101 121.078 1100.67 120.943 1100.33 120.943H1077.25C1076.91 120.943 1076.58 121.078 1076.34 121.319C1076.1 121.56 1075.97 121.886 1075.97 122.226V129.921C1075.97 130.261 1076.1 130.587 1076.34 130.828C1076.58 131.068 1076.91 131.203 1077.25 131.203ZM1086.23 128.638V123.508H1091.36V128.638H1086.23ZM1099.05 128.638H1093.92V123.508H1099.05V128.638ZM1078.53 123.508H1083.66V128.638H1078.53V123.508Z" fill="url(#paint49_linear_799_1627)"/>
<path d="M1113.16 138.899H1118.29C1118.63 138.899 1118.96 138.764 1119.2 138.524C1119.44 138.283 1119.57 137.957 1119.57 137.617V127.357C1119.57 127.017 1119.44 126.69 1119.2 126.45C1118.96 126.209 1118.63 126.074 1118.29 126.074H1113.16C1112.82 126.074 1112.49 126.209 1112.25 126.45C1112.01 126.69 1111.88 127.017 1111.88 127.357V137.617C1111.88 137.957 1112.01 138.283 1112.25 138.524C1112.49 138.764 1112.82 138.899 1113.16 138.899ZM1114.44 128.639H1117.01V136.334H1114.44V128.639Z" fill="url(#paint50_linear_799_1627)"/>
<path d="M1123.42 138.899H1128.55C1128.89 138.899 1129.22 138.764 1129.46 138.524C1129.7 138.283 1129.83 137.957 1129.83 137.617V127.357C1129.83 127.017 1129.7 126.69 1129.46 126.45C1129.22 126.209 1128.89 126.074 1128.55 126.074H1123.42C1123.08 126.074 1122.75 126.209 1122.51 126.45C1122.27 126.69 1122.14 127.017 1122.14 127.357V137.617C1122.14 137.957 1122.27 138.283 1122.51 138.524C1122.75 138.764 1123.08 138.899 1123.42 138.899ZM1124.7 128.639H1127.27V136.334H1124.7V128.639Z" fill="url(#paint51_linear_799_1627)"/>
<path d="M1133.68 138.899H1138.81C1139.15 138.899 1139.48 138.764 1139.72 138.524C1139.96 138.283 1140.09 137.957 1140.09 137.617V127.357C1140.09 127.017 1139.96 126.69 1139.72 126.45C1139.48 126.209 1139.15 126.074 1138.81 126.074H1133.68C1133.34 126.074 1133.01 126.209 1132.77 126.45C1132.53 126.69 1132.4 127.017 1132.4 127.357V137.617C1132.4 137.957 1132.53 138.283 1132.77 138.524C1133.01 138.764 1133.34 138.899 1133.68 138.899ZM1134.96 128.639H1137.53V136.334H1134.96V128.639Z" fill="url(#paint52_linear_799_1627)"/>
<path d="M984.188 144.802H976.252V101.151C976.252 100.42 975.66 99.8277 974.929 99.8277H956.41V69.4038C956.41 68.6733 955.818 68.0811 955.087 68.0811H920.695C919.965 68.0811 919.372 68.6733 919.372 69.4038V144.802H919.467C918.737 144.802 918.145 145.394 918.145 146.125C918.145 146.856 918.737 147.448 919.467 147.448H984.188C984.919 147.448 985.511 146.856 985.511 146.125C985.511 145.394 984.919 144.802 984.188 144.802ZM933.923 144.802H928.632V132.897C928.632 132.167 929.224 131.574 929.955 131.574H932.6C933.331 131.574 933.923 132.167 933.923 132.897V144.802ZM939.214 101.151V144.802H936.568V132.897C936.568 130.706 934.792 128.929 932.6 128.929H929.955C927.763 128.929 925.986 130.706 925.986 132.897V144.802H922.018V70.7266H953.765V99.8277H940.537C939.806 99.8277 939.214 100.42 939.214 101.151ZM973.606 144.802H941.86V102.473H973.606V144.802Z" fill="url(#paint53_linear_799_1627)"/>
<path d="M948.474 86.6006H940.538C939.807 86.6006 939.215 87.1929 939.215 87.9234V95.86C939.215 96.5905 939.807 97.1828 940.538 97.1828H948.474C949.205 97.1828 949.797 96.5905 949.797 95.86V87.9234C949.797 87.1929 949.205 86.6006 948.474 86.6006ZM947.152 94.5373H941.86V89.2461H947.152V94.5373Z" fill="url(#paint54_linear_799_1627)"/>
<path d="M948.474 73.373H940.538C939.807 73.373 939.215 73.9653 939.215 74.6958V82.6325C939.215 83.363 939.807 83.9553 940.538 83.9553H948.474C949.205 83.9553 949.797 83.363 949.797 82.6325V74.6958C949.797 73.9653 949.205 73.373 948.474 73.373ZM947.152 81.3097H941.86V76.0186H947.152V81.3097Z" fill="url(#paint55_linear_799_1627)"/>
<path d="M935.246 86.6006H927.309C926.579 86.6006 925.986 87.1929 925.986 87.9234V95.86C925.986 96.5905 926.579 97.1828 927.309 97.1828H935.246C935.976 97.1828 936.569 96.5905 936.569 95.86V87.9234C936.569 87.1929 935.976 86.6006 935.246 86.6006ZM933.923 94.5373H928.632V89.2461H933.923V94.5373Z" fill="url(#paint56_linear_799_1627)"/>
<path d="M935.246 73.373H927.309C926.579 73.373 925.986 73.9653 925.986 74.6958V82.6325C925.986 83.363 926.579 83.9553 927.309 83.9553H935.246C935.976 83.9553 936.569 83.363 936.569 82.6325V74.6958C936.569 73.9653 935.976 73.373 935.246 73.373ZM933.923 81.3097H928.632V76.0186H933.923V81.3097Z" fill="url(#paint57_linear_799_1627)"/>
<path d="M935.246 99.8271H927.309C926.579 99.8271 925.986 100.419 925.986 101.15V109.087C925.986 109.817 926.579 110.409 927.309 110.409H935.246C935.976 110.409 936.569 109.817 936.569 109.087V101.15C936.569 100.419 935.976 99.8271 935.246 99.8271ZM933.923 107.764H928.632V102.473H933.923V107.764Z" fill="url(#paint58_linear_799_1627)"/>
<path d="M935.246 113.056H927.309C926.579 113.056 925.986 113.648 925.986 114.378V122.315C925.986 123.046 926.579 123.638 927.309 123.638H935.246C935.976 123.638 936.569 123.046 936.569 122.315V114.378C936.569 113.648 935.976 113.056 935.246 113.056ZM933.923 120.992H928.632V115.701H933.923V120.992Z" fill="url(#paint59_linear_799_1627)"/>
<path d="M960.377 128.929H968.314C969.045 128.929 969.637 128.337 969.637 127.606V119.669C969.637 118.939 969.045 118.347 968.314 118.347H960.377C959.647 118.347 959.055 118.939 959.055 119.669V127.606C959.055 128.337 959.647 128.929 960.377 128.929ZM961.7 120.992H966.991V126.283H961.7V120.992Z" fill="url(#paint60_linear_799_1627)"/>
<path d="M960.377 115.7H968.314C969.045 115.7 969.637 115.108 969.637 114.378V106.441C969.637 105.71 969.045 105.118 968.314 105.118H960.377C959.647 105.118 959.055 105.71 959.055 106.441V114.378C959.055 115.108 959.647 115.7 960.377 115.7ZM961.7 107.764H966.991V113.055H961.7V107.764Z" fill="url(#paint61_linear_799_1627)"/>
<path d="M960.379 142.156H968.316C969.047 142.156 969.639 141.564 969.639 140.834V132.897C969.639 132.166 969.047 131.574 968.316 131.574H960.379C959.649 131.574 959.057 132.166 959.057 132.897V140.834C959.057 141.564 959.649 142.156 960.379 142.156ZM961.702 134.22H966.993V139.511H961.702V134.22Z" fill="url(#paint62_linear_799_1627)"/>
<path d="M947.151 128.929H955.088C955.818 128.929 956.41 128.337 956.41 127.606V119.669C956.41 118.939 955.818 118.347 955.088 118.347H947.151C946.42 118.347 945.828 118.939 945.828 119.669V127.606C945.828 128.337 946.42 128.929 947.151 128.929ZM948.474 120.992H953.765V126.283H948.474V120.992Z" fill="url(#paint63_linear_799_1627)"/>
<path d="M947.151 115.7H955.088C955.818 115.7 956.41 115.108 956.41 114.378V106.441C956.41 105.71 955.818 105.118 955.088 105.118H947.151C946.42 105.118 945.828 105.71 945.828 106.441V114.378C945.828 115.108 946.42 115.7 947.151 115.7ZM948.474 107.764H953.765V113.055H948.474V107.764Z" fill="url(#paint64_linear_799_1627)"/>
<path d="M947.151 142.156H955.088C955.818 142.156 956.41 141.564 956.41 140.834V132.897C956.41 132.166 955.818 131.574 955.088 131.574H947.151C946.42 131.574 945.828 132.166 945.828 132.897V140.834C945.828 141.564 946.42 142.156 947.151 142.156ZM948.474 134.22H953.765V139.511H948.474V134.22Z" fill="url(#paint65_linear_799_1627)"/>
<path d="M1045.06 138.457C1045.43 138.457 1045.73 138.152 1045.73 137.784V113.951C1046.08 114.31 1046.54 114.516 1047.04 114.543H1047.12C1047.62 114.543 1048.08 114.364 1048.44 114.032L1050.22 112.399C1050.61 112.049 1050.83 111.565 1050.85 111.045C1050.87 110.525 1050.69 110.022 1050.34 109.646L1035.9 93.9214C1035.17 93.1142 1033.77 93.1231 1033.03 93.9214L1018.6 109.637C1017.87 110.426 1017.93 111.664 1018.72 112.39L1020.49 114.023C1021.27 114.731 1022.47 114.696 1023.2 113.942V117.36H1010.67V114.911H1015.44C1015.93 114.911 1016.38 114.66 1016.63 114.247C1016.88 113.834 1016.91 113.323 1016.68 112.893L1014.04 107.708C1013.8 107.242 1013.33 106.946 1012.8 106.946H1003.99C1003.47 106.946 1002.99 107.233 1002.75 107.708L1000.11 112.902C999.89 113.332 999.908 113.843 1000.17 114.256C1000.42 114.669 1000.87 114.92 1001.35 114.92H1006.12V117.369H998.338C997.854 117.369 997.423 117.638 997.208 118.068L993.136 126.204C992.938 126.598 992.956 127.056 993.189 127.433C993.423 127.809 993.826 128.034 994.266 128.034H997.298V136.582C997.298 136.95 997.603 137.255 997.97 137.255C998.338 137.255 998.643 136.95 998.643 136.582V128.034H1023.2V145.121H1009.25C1009.25 145.121 1009.25 145.121 1009.24 145.121H1006.98C1006.99 144.861 1006.96 144.601 1006.9 144.341C1006.58 142.995 1005.33 142.018 1003.95 142C1003.49 140.681 1002.21 139.748 1000.78 139.748C1000.78 139.748 1000.78 139.748 1000.77 139.748C999.083 139.748 997.612 141.058 997.432 142.735C997.414 142.906 997.405 143.076 997.414 143.246C996.589 143.56 995.961 144.26 995.746 145.121H995.046C994.678 145.121 994.374 145.426 994.374 145.794C994.374 146.162 994.678 146.467 995.046 146.467H1047.99C1048.35 146.467 1048.66 146.162 1048.66 145.794C1048.66 145.426 1048.35 145.121 1047.99 145.121H1047.31C1047.32 144.861 1047.3 144.601 1047.23 144.341C1046.92 142.995 1045.67 142.018 1044.29 142C1043.82 140.681 1042.55 139.748 1041.12 139.748C1041.12 139.748 1041.12 139.748 1041.11 139.748C1039.42 139.748 1037.95 141.058 1037.77 142.735C1037.75 142.906 1037.74 143.076 1037.75 143.246C1036.93 143.56 1036.31 144.26 1036.08 145.121H1035.18H1030.65V133.514C1030.65 133.218 1030.88 132.985 1031.18 132.985H1037.85C1038.15 132.985 1038.38 133.218 1038.38 133.514V137.533C1038.38 137.9 1038.68 138.205 1039.05 138.205C1039.42 138.205 1039.72 137.9 1039.72 137.533V133.514C1039.72 132.483 1038.88 131.639 1037.85 131.639H1031.18C1030.15 131.639 1029.3 132.483 1029.3 133.514V145.13H1024.55V112.489L1034.47 101.689L1044.39 112.498V137.784C1044.39 138.152 1044.69 138.457 1045.06 138.457ZM1038.58 144.43C1038.77 144.413 1038.94 144.305 1039.05 144.152C1039.16 144 1039.2 143.794 1039.15 143.605C1039.1 143.381 1039.08 143.139 1039.11 142.888C1039.21 141.91 1040.11 141.103 1041.11 141.103C1042.1 141.103 1042.96 141.838 1043.11 142.825C1043.13 143.004 1043.23 143.175 1043.38 143.273C1043.54 143.381 1043.73 143.417 1043.9 143.381C1043.99 143.363 1044.08 143.354 1044.16 143.345C1044.96 143.309 1045.73 143.874 1045.91 144.646C1045.95 144.807 1045.97 144.96 1045.96 145.121H1037.5C1037.73 144.753 1038.12 144.484 1038.58 144.43ZM1009.59 108.309L1009.93 110.184H1006.86L1007.21 108.309H1009.59ZM1010.18 111.529L1010.56 113.565L1006.24 113.547L1006.61 111.538H1010.18V111.529ZM1011.93 113.565L1011.55 111.529H1014.42L1015.44 113.583L1011.93 113.565ZM1012.83 108.327L1013.75 110.175H1011.29L1010.94 108.3H1012.78C1012.82 108.309 1012.83 108.318 1012.83 108.327ZM1005.84 108.309L1005.49 110.184H1003.03L1003.99 108.309H1005.84ZM1001.31 113.512L1002.33 111.52H1005.24L1004.87 113.529L1001.31 113.512ZM1007.47 114.929H1009.33V117.377H1007.47V114.929ZM998.338 118.714H1023.2V121.674H996.876L998.338 118.714ZM997.97 126.688H994.391L996.203 123.02H1023.19V126.688H997.97ZM997.172 145.13C997.387 144.753 997.773 144.484 998.231 144.43C998.419 144.413 998.598 144.305 998.706 144.152C998.814 144 998.858 143.794 998.805 143.605C998.751 143.381 998.733 143.139 998.76 142.888C998.867 141.91 999.764 141.103 1000.76 141.103C1001.76 141.103 1002.62 141.838 1002.76 142.825C1002.79 143.004 1002.89 143.175 1003.04 143.273C1003.19 143.381 1003.38 143.417 1003.56 143.381C1003.64 143.363 1003.73 143.354 1003.81 143.345C1004.64 143.318 1005.38 143.874 1005.57 144.646C1005.6 144.807 1005.62 144.96 1005.61 145.121H997.172V145.13ZM1034.47 100.021C1034.28 100.021 1034.1 100.102 1033.98 100.236L1022.26 113C1022.04 113.242 1021.65 113.26 1021.41 113.036L1019.63 111.404C1019.39 111.179 1019.37 110.794 1019.6 110.551L1034.03 94.8274C1034.26 94.5762 1034.68 94.5762 1034.92 94.8274L1049.35 110.542C1049.46 110.659 1049.52 110.821 1049.51 110.982C1049.5 111.143 1049.44 111.296 1049.31 111.404L1047.54 113.036C1047.3 113.26 1046.91 113.242 1046.69 113L1034.97 100.236C1034.84 100.102 1034.66 100.021 1034.47 100.021Z" fill="url(#paint66_linear_799_1627)" stroke="url(#paint67_linear_799_1627)" stroke-width="0.75"/>
<path d="M1029.3 114.202V120.499C1029.3 120.866 1029.61 121.171 1029.98 121.171H1038.68C1039.04 121.171 1039.35 120.866 1039.35 120.499V114.202C1039.35 111.43 1037.1 109.179 1034.33 109.179C1031.55 109.179 1029.3 111.43 1029.3 114.202ZM1033.65 110.587V114.776H1030.65V114.202C1030.65 112.399 1031.95 110.91 1033.65 110.587ZM1030.65 116.121H1033.65V119.826H1030.65V116.121ZM1035 119.817V116.112H1038V119.817H1035ZM1038 114.202V114.776H1035V110.587C1036.7 110.91 1038 112.399 1038 114.202Z" fill="url(#paint68_linear_799_1627)" stroke="url(#paint69_linear_799_1627)" stroke-width="0.75"/>
<path d="M1016.48 140.412C1017.24 140.412 1017.85 139.793 1017.85 139.04V132.474C1017.85 131.712 1017.23 131.102 1016.48 131.102H1005.38C1004.62 131.102 1004 131.72 1004 132.474V139.04C1004 139.802 1004.62 140.412 1005.38 140.412H1016.48ZM1016.5 132.474L1016.48 139.067L1011.6 139.049V132.438H1016.48C1016.48 132.438 1016.5 132.456 1016.5 132.474ZM1005.38 132.438H1010.25V139.049L1005.34 139.031L1005.38 132.438Z" fill="url(#paint70_linear_799_1627)" stroke="url(#paint71_linear_799_1627)" stroke-width="0.75"/>
<path d="M1015.41 103.295H1021.97C1022.34 103.295 1022.65 102.99 1022.65 102.622C1022.65 102.255 1022.34 101.95 1021.97 101.95H1015.71C1015.68 101.681 1015.7 101.412 1015.76 101.142C1016.01 100.075 1017.08 99.2947 1018.19 99.3665C1018.29 99.3754 1018.39 99.3844 1018.49 99.4113C1018.67 99.4472 1018.86 99.4113 1019.01 99.3037C1019.17 99.196 1019.27 99.0346 1019.29 98.8552C1019.49 97.5366 1020.65 96.541 1021.98 96.541H1021.99C1023.16 96.541 1024.15 97.2227 1024.54 98.2811C1024.66 98.6309 1025.05 98.8103 1025.4 98.6848C1025.75 98.5592 1025.93 98.1735 1025.8 97.8236C1025.22 96.2091 1023.72 95.1865 1021.99 95.1865H1021.98C1020.21 95.1865 1018.65 96.3705 1018.12 98.021C1016.39 97.9582 1014.85 99.1691 1014.46 100.838C1014.32 101.412 1014.32 101.995 1014.47 102.56C1014.56 102.99 1014.96 103.295 1015.41 103.295Z" fill="url(#paint72_linear_799_1627)" stroke="url(#paint73_linear_799_1627)" stroke-width="0.75"/>
<rect x="731" y="142.483" width="76" height="10" rx="2" fill="white"/>
<rect x="621" y="142.483" width="82" height="10" rx="2" fill="white"/>
<rect x="828" y="127.483" width="34" height="25" rx="2" fill="white"/>
<rect x="865" y="142.483" width="17" height="10" rx="2" fill="white" stroke="white"/>
<rect x="865" y="142.483" width="17" height="10" rx="2" fill="white" stroke="white"/>
<rect x="885" y="141.483" width="12" height="10" rx="2" fill="white"/>
<rect x="929" y="139.483" width="5" height="10" rx="2" fill="white"/>
<rect x="942" y="142.483" width="32" height="7" rx="2" fill="white"/>
<rect x="1007" y="142.386" width="16" height="7" rx="2" fill="white"/>
<rect x="1037" y="144.386" width="9" height="5" rx="2" fill="white"/>
<rect x="1078" y="136.483" width="7" height="14" fill="white"/>
<rect x="1092" y="136.483" width="7" height="14" fill="white"/>
<rect x="1107" y="142.483" width="38" height="6" fill="white"/>
<rect x="1165" y="143.483" width="34" height="7" fill="white"/>
<rect x="1216" y="143.483" width="27" height="6" fill="white"/>
<rect x="1267" y="141.483" width="28" height="8" fill="white"/>
<rect x="1145" y="143.483" width="3" height="4" fill="url(#paint74_linear_799_1627)"/>
<defs>
<linearGradient id="paint0_linear_799_1627" x1="1920" y1="147.984" x2="-4.37115e-08" y2="147.983" gradientUnits="userSpaceOnUse">
<stop stop-color="#0DB02B"/>
<stop offset="1" stop-color="#28A9E2"/>
</linearGradient>
<linearGradient id="paint1_linear_799_1627" x1="1177.28" y1="12.2256" x2="1158.74" y2="12.2256" gradientUnits="userSpaceOnUse">
<stop stop-color="#0DB02B"/>
<stop offset="1" stop-color="#28A9E2"/>
</linearGradient>
<linearGradient id="paint2_linear_799_1627" x1="1177.28" y1="12.2256" x2="1158.74" y2="12.2256" gradientUnits="userSpaceOnUse">
<stop stop-color="#0DB02B"/>
<stop offset="1" stop-color="#28A9E2"/>
</linearGradient>
<linearGradient id="paint3_linear_799_1627" x1="1204.62" y1="12.2256" x2="1187.04" y2="12.2256" gradientUnits="userSpaceOnUse">
<stop stop-color="#0DB02B"/>
<stop offset="1" stop-color="#28A9E2"/>
</linearGradient>
<linearGradient id="paint4_linear_799_1627" x1="1204.62" y1="12.2256" x2="1187.04" y2="12.2256" gradientUnits="userSpaceOnUse">
<stop stop-color="#0DB02B"/>
<stop offset="1" stop-color="#28A9E2"/>
</linearGradient>
<linearGradient id="paint5_linear_799_1627" x1="1188.02" y1="5.88046" x2="1176.31" y2="5.88046" gradientUnits="userSpaceOnUse">
<stop stop-color="#0DB02B"/>
<stop offset="1" stop-color="#28A9E2"/>
</linearGradient>
<linearGradient id="paint6_linear_799_1627" x1="1188.02" y1="5.88046" x2="1176.31" y2="5.88046" gradientUnits="userSpaceOnUse">
<stop stop-color="#0DB02B"/>
<stop offset="1" stop-color="#28A9E2"/>
</linearGradient>
<linearGradient id="paint7_linear_799_1627" x1="1179.24" y1="73.7239" x2="1162.64" y2="73.7239" gradientUnits="userSpaceOnUse">
<stop stop-color="#0DB02B"/>
<stop offset="1" stop-color="#28A9E2"/>
</linearGradient>
<linearGradient id="paint8_linear_799_1627" x1="1179.24" y1="73.7239" x2="1162.64" y2="73.7239" gradientUnits="userSpaceOnUse">
<stop stop-color="#0DB02B"/>
<stop offset="1" stop-color="#28A9E2"/>
</linearGradient>
<linearGradient id="paint9_linear_799_1627" x1="1201.69" y1="73.7239" x2="1185.09" y2="73.7239" gradientUnits="userSpaceOnUse">
<stop stop-color="#0DB02B"/>
<stop offset="1" stop-color="#28A9E2"/>
</linearGradient>
<linearGradient id="paint10_linear_799_1627" x1="1201.69" y1="73.7239" x2="1185.09" y2="73.7239" gradientUnits="userSpaceOnUse">
<stop stop-color="#0DB02B"/>
<stop offset="1" stop-color="#28A9E2"/>
</linearGradient>
<linearGradient id="paint11_linear_799_1627" x1="1189" y1="15.1544" x2="1174.35" y2="15.1544" gradientUnits="userSpaceOnUse">
<stop stop-color="#0DB02B"/>
<stop offset="1" stop-color="#28A9E2"/>
</linearGradient>
<linearGradient id="paint12_linear_799_1627" x1="1189" y1="15.1544" x2="1174.35" y2="15.1544" gradientUnits="userSpaceOnUse">
<stop stop-color="#0DB02B"/>
<stop offset="1" stop-color="#28A9E2"/>
</linearGradient>
<linearGradient id="paint13_linear_799_1627" x1="1200.71" y1="75.6762" x2="1165.57" y2="75.6762" gradientUnits="userSpaceOnUse">
<stop stop-color="#0DB02B"/>
<stop offset="1" stop-color="#28A9E2"/>
</linearGradient>
<linearGradient id="paint14_linear_799_1627" x1="1200.71" y1="75.6762" x2="1165.57" y2="75.6762" gradientUnits="userSpaceOnUse">
<stop stop-color="#0DB02B"/>
<stop offset="1" stop-color="#28A9E2"/>
</linearGradient>
<linearGradient id="paint15_linear_799_1627" x1="1222.19" y1="29.3087" x2="1142.14" y2="29.3087" gradientUnits="userSpaceOnUse">
<stop stop-color="#0DB02B"/>
<stop offset="1" stop-color="#28A9E2"/>
</linearGradient>
<linearGradient id="paint16_linear_799_1627" x1="1222.19" y1="29.3087" x2="1142.14" y2="29.3087" gradientUnits="userSpaceOnUse">
<stop stop-color="#0DB02B"/>
<stop offset="1" stop-color="#28A9E2"/>
</linearGradient>
<linearGradient id="paint17_linear_799_1627" x1="718.608" y1="99.375" x2="814.314" y2="99.375" gradientUnits="userSpaceOnUse">
<stop stop-color="#0DB02B"/>
<stop offset="1" stop-color="#28A9E2"/>
</linearGradient>
<linearGradient id="paint18_linear_799_1627" x1="810.292" y1="19.8805" x2="830.668" y2="19.8805" gradientUnits="userSpaceOnUse">
<stop stop-color="#0DB02B"/>
<stop offset="1" stop-color="#28A9E2"/>
</linearGradient>
<linearGradient id="paint19_linear_799_1627" x1="803" y1="18.9741" x2="807.303" y2="18.9741" gradientUnits="userSpaceOnUse">
<stop stop-color="#0DB02B"/>
<stop offset="1" stop-color="#28A9E2"/>
</linearGradient>
<linearGradient id="paint20_linear_799_1627" x1="833.679" y1="18.9741" x2="837.982" y2="18.9741" gradientUnits="userSpaceOnUse">
<stop stop-color="#0DB02B"/>
<stop offset="1" stop-color="#28A9E2"/>
</linearGradient>
<linearGradient id="paint21_linear_799_1627" x1="819.439" y1="3.63526" x2="821.754" y2="3.65147" gradientUnits="userSpaceOnUse">
<stop stop-color="#0DB02B"/>
<stop offset="1" stop-color="#28A9E2"/>
</linearGradient>
<linearGradient id="paint22_linear_799_1627" x1="819.226" y1="34.3159" x2="821.542" y2="34.3321" gradientUnits="userSpaceOnUse">
<stop stop-color="#0DB02B"/>
<stop offset="1" stop-color="#28A9E2"/>
</linearGradient>
<linearGradient id="paint23_linear_799_1627" x1="808.124" y1="6.62595" x2="811.166" y2="9.66813" gradientUnits="userSpaceOnUse">
<stop stop-color="#0DB02B"/>
<stop offset="1" stop-color="#28A9E2"/>
</linearGradient>
<linearGradient id="paint24_linear_799_1627" x1="829.819" y1="28.2939" x2="832.861" y2="31.3361" gradientUnits="userSpaceOnUse">
<stop stop-color="#0DB02B"/>
<stop offset="1" stop-color="#28A9E2"/>
</linearGradient>
<linearGradient id="paint25_linear_799_1627" x1="830.593" y1="7.40663" x2="832.218" y2="9.05525" gradientUnits="userSpaceOnUse">
<stop stop-color="#0DB02B"/>
<stop offset="1" stop-color="#28A9E2"/>
</linearGradient>
<linearGradient id="paint26_linear_799_1627" x1="808.753" y1="28.9447" x2="810.378" y2="30.5933" gradientUnits="userSpaceOnUse">
<stop stop-color="#0DB02B"/>
<stop offset="1" stop-color="#28A9E2"/>
</linearGradient>
<linearGradient id="paint27_linear_799_1627" x1="1301" y1="109.192" x2="1213.44" y2="109.192" gradientUnits="userSpaceOnUse">
<stop stop-color="#0DB02B"/>
<stop offset="1" stop-color="#28A9E2"/>
</linearGradient>
<linearGradient id="paint28_linear_799_1627" x1="1220.49" y1="137.407" x2="1217.89" y2="137.407" gradientUnits="userSpaceOnUse">
<stop stop-color="#0DB02B"/>
<stop offset="1" stop-color="#28A9E2"/>
</linearGradient>
<linearGradient id="paint29_linear_799_1627" x1="1232.38" y1="136.392" x2="1226.63" y2="136.392" gradientUnits="userSpaceOnUse">
<stop stop-color="#0DB02B"/>
<stop offset="1" stop-color="#28A9E2"/>
</linearGradient>
<linearGradient id="paint30_linear_799_1627" x1="863.241" y1="107.324" x2="826.555" y2="107.324" gradientUnits="userSpaceOnUse">
<stop stop-color="#0DB02B"/>
<stop offset="1" stop-color="#28A9E2"/>
</linearGradient>
<linearGradient id="paint31_linear_799_1627" x1="888.754" y1="124.777" x2="863.24" y2="124.777" gradientUnits="userSpaceOnUse">
<stop stop-color="#0DB02B"/>
<stop offset="1" stop-color="#28A9E2"/>
</linearGradient>
<linearGradient id="paint32_linear_799_1627" x1="898.304" y1="141.646" x2="863.24" y2="141.646" gradientUnits="userSpaceOnUse">
<stop stop-color="#0DB02B"/>
<stop offset="1" stop-color="#28A9E2"/>
</linearGradient>
<linearGradient id="paint33_linear_799_1627" x1="898.305" y1="133.121" x2="883.889" y2="133.121" gradientUnits="userSpaceOnUse">
<stop stop-color="#0DB02B"/>
<stop offset="1" stop-color="#28A9E2"/>
</linearGradient>
<linearGradient id="paint34_linear_799_1627" x1="875.997" y1="86.6234" x2="863.24" y2="86.6234" gradientUnits="userSpaceOnUse">
<stop stop-color="#0DB02B"/>
<stop offset="1" stop-color="#28A9E2"/>
</linearGradient>
<linearGradient id="paint35_linear_799_1627" x1="840.913" y1="73.0451" x2="835.529" y2="73.0451" gradientUnits="userSpaceOnUse">
<stop stop-color="#0DB02B"/>
<stop offset="1" stop-color="#28A9E2"/>
</linearGradient>
<linearGradient id="paint36_linear_799_1627" x1="863.241" y1="83.1413" x2="835.529" y2="83.1413" gradientUnits="userSpaceOnUse">
<stop stop-color="#0DB02B"/>
<stop offset="1" stop-color="#28A9E2"/>
</linearGradient>
<linearGradient id="paint37_linear_799_1627" x1="863.241" y1="92.0104" x2="835.529" y2="92.0104" gradientUnits="userSpaceOnUse">
<stop stop-color="#0DB02B"/>
<stop offset="1" stop-color="#28A9E2"/>
</linearGradient>
<linearGradient id="paint38_linear_799_1627" x1="863.241" y1="100.879" x2="835.529" y2="100.879" gradientUnits="userSpaceOnUse">
<stop stop-color="#0DB02B"/>
<stop offset="1" stop-color="#28A9E2"/>
</linearGradient>
<linearGradient id="paint39_linear_799_1627" x1="863.241" y1="109.747" x2="835.529" y2="109.747" gradientUnits="userSpaceOnUse">
<stop stop-color="#0DB02B"/>
<stop offset="1" stop-color="#28A9E2"/>
</linearGradient>
<linearGradient id="paint40_linear_799_1627" x1="840.104" y1="122.504" x2="835.529" y2="122.504" gradientUnits="userSpaceOnUse">
<stop stop-color="#0DB02B"/>
<stop offset="1" stop-color="#28A9E2"/>
</linearGradient>
<linearGradient id="paint41_linear_799_1627" x1="863.24" y1="116.918" x2="845.621" y2="116.918" gradientUnits="userSpaceOnUse">
<stop stop-color="#0DB02B"/>
<stop offset="1" stop-color="#28A9E2"/>
</linearGradient>
<linearGradient id="paint42_linear_799_1627" x1="850.132" y1="137.746" x2="835.529" y2="137.746" gradientUnits="userSpaceOnUse">
<stop stop-color="#0DB02B"/>
<stop offset="1" stop-color="#28A9E2"/>
</linearGradient>
<linearGradient id="paint43_linear_799_1627" x1="882.799" y1="111.91" x2="869.023" y2="111.91" gradientUnits="userSpaceOnUse">
<stop stop-color="#0DB02B"/>
<stop offset="1" stop-color="#28A9E2"/>
</linearGradient>
<linearGradient id="paint44_linear_799_1627" x1="882.799" y1="121.282" x2="869.023" y2="121.282" gradientUnits="userSpaceOnUse">
<stop stop-color="#0DB02B"/>
<stop offset="1" stop-color="#28A9E2"/>
</linearGradient>
<linearGradient id="paint45_linear_799_1627" x1="874.712" y1="130.744" x2="869.023" y2="130.744" gradientUnits="userSpaceOnUse">
<stop stop-color="#0DB02B"/>
<stop offset="1" stop-color="#28A9E2"/>
</linearGradient>
<linearGradient id="paint46_linear_799_1627" x1="843.83" y1="138.539" x2="842.83" y2="138.539" gradientUnits="userSpaceOnUse">
<stop stop-color="#0DB02B"/>
<stop offset="1" stop-color="#28A9E2"/>
</linearGradient>
<linearGradient id="paint47_linear_799_1627" x1="619" y1="121.475" x2="705.15" y2="121.475" gradientUnits="userSpaceOnUse">
<stop stop-color="#0DB02B"/>
<stop offset="1" stop-color="#28A9E2"/>
</linearGradient>
<linearGradient id="paint48_linear_799_1627" x1="1147.79" y1="106.838" x2="1068.27" y2="106.838" gradientUnits="userSpaceOnUse">
<stop stop-color="#0DB02B"/>
<stop offset="1" stop-color="#28A9E2"/>
</linearGradient>
<linearGradient id="paint49_linear_799_1627" x1="1101.62" y1="126.073" x2="1075.97" y2="126.073" gradientUnits="userSpaceOnUse">
<stop stop-color="#0DB02B"/>
<stop offset="1" stop-color="#28A9E2"/>
</linearGradient>
<linearGradient id="paint50_linear_799_1627" x1="1119.57" y1="132.487" x2="1111.88" y2="132.487" gradientUnits="userSpaceOnUse">
<stop stop-color="#0DB02B"/>
<stop offset="1" stop-color="#28A9E2"/>
</linearGradient>
<linearGradient id="paint51_linear_799_1627" x1="1129.83" y1="132.487" x2="1122.14" y2="132.487" gradientUnits="userSpaceOnUse">
<stop stop-color="#0DB02B"/>
<stop offset="1" stop-color="#28A9E2"/>
</linearGradient>
<linearGradient id="paint52_linear_799_1627" x1="1140.09" y1="132.487" x2="1132.4" y2="132.487" gradientUnits="userSpaceOnUse">
<stop stop-color="#0DB02B"/>
<stop offset="1" stop-color="#28A9E2"/>
</linearGradient>
<linearGradient id="paint53_linear_799_1627" x1="985.511" y1="107.764" x2="918.145" y2="107.764" gradientUnits="userSpaceOnUse">
<stop stop-color="#0DB02B"/>
<stop offset="1" stop-color="#28A9E2"/>
</linearGradient>
<linearGradient id="paint54_linear_799_1627" x1="949.797" y1="91.8917" x2="939.215" y2="91.8917" gradientUnits="userSpaceOnUse">
<stop stop-color="#0DB02B"/>
<stop offset="1" stop-color="#28A9E2"/>
</linearGradient>
<linearGradient id="paint55_linear_799_1627" x1="949.797" y1="78.6642" x2="939.215" y2="78.6642" gradientUnits="userSpaceOnUse">
<stop stop-color="#0DB02B"/>
<stop offset="1" stop-color="#28A9E2"/>
</linearGradient>
<linearGradient id="paint56_linear_799_1627" x1="936.569" y1="91.8917" x2="925.986" y2="91.8917" gradientUnits="userSpaceOnUse">
<stop stop-color="#0DB02B"/>
<stop offset="1" stop-color="#28A9E2"/>
</linearGradient>
<linearGradient id="paint57_linear_799_1627" x1="936.569" y1="78.6642" x2="925.986" y2="78.6642" gradientUnits="userSpaceOnUse">
<stop stop-color="#0DB02B"/>
<stop offset="1" stop-color="#28A9E2"/>
</linearGradient>
<linearGradient id="paint58_linear_799_1627" x1="936.569" y1="105.118" x2="925.986" y2="105.118" gradientUnits="userSpaceOnUse">
<stop stop-color="#0DB02B"/>
<stop offset="1" stop-color="#28A9E2"/>
</linearGradient>
<linearGradient id="paint59_linear_799_1627" x1="936.569" y1="118.347" x2="925.986" y2="118.347" gradientUnits="userSpaceOnUse">
<stop stop-color="#0DB02B"/>
<stop offset="1" stop-color="#28A9E2"/>
</linearGradient>
<linearGradient id="paint60_linear_799_1627" x1="969.637" y1="123.638" x2="959.055" y2="123.638" gradientUnits="userSpaceOnUse">
<stop stop-color="#0DB02B"/>
<stop offset="1" stop-color="#28A9E2"/>
</linearGradient>
<linearGradient id="paint61_linear_799_1627" x1="969.637" y1="110.409" x2="959.055" y2="110.409" gradientUnits="userSpaceOnUse">
<stop stop-color="#0DB02B"/>
<stop offset="1" stop-color="#28A9E2"/>
</linearGradient>
<linearGradient id="paint62_linear_799_1627" x1="969.639" y1="136.865" x2="959.057" y2="136.865" gradientUnits="userSpaceOnUse">
<stop stop-color="#0DB02B"/>
<stop offset="1" stop-color="#28A9E2"/>
</linearGradient>
<linearGradient id="paint63_linear_799_1627" x1="956.41" y1="123.638" x2="945.828" y2="123.638" gradientUnits="userSpaceOnUse">
<stop stop-color="#0DB02B"/>
<stop offset="1" stop-color="#28A9E2"/>
</linearGradient>
<linearGradient id="paint64_linear_799_1627" x1="956.41" y1="110.409" x2="945.828" y2="110.409" gradientUnits="userSpaceOnUse">
<stop stop-color="#0DB02B"/>
<stop offset="1" stop-color="#28A9E2"/>
</linearGradient>
<linearGradient id="paint65_linear_799_1627" x1="956.41" y1="136.865" x2="945.828" y2="136.865" gradientUnits="userSpaceOnUse">
<stop stop-color="#0DB02B"/>
<stop offset="1" stop-color="#28A9E2"/>
</linearGradient>
<linearGradient id="paint66_linear_799_1627" x1="1050.85" y1="119.893" x2="993" y2="119.893" gradientUnits="userSpaceOnUse">
<stop stop-color="#0DB02B"/>
<stop offset="1" stop-color="#28A9E2"/>
</linearGradient>
<linearGradient id="paint67_linear_799_1627" x1="1050.85" y1="119.893" x2="993" y2="119.893" gradientUnits="userSpaceOnUse">
<stop stop-color="#0DB02B"/>
<stop offset="1" stop-color="#28A9E2"/>
</linearGradient>
<linearGradient id="paint68_linear_799_1627" x1="1039.35" y1="115.175" x2="1029.3" y2="115.175" gradientUnits="userSpaceOnUse">
<stop stop-color="#0DB02B"/>
<stop offset="1" stop-color="#28A9E2"/>
</linearGradient>
<linearGradient id="paint69_linear_799_1627" x1="1039.35" y1="115.175" x2="1029.3" y2="115.175" gradientUnits="userSpaceOnUse">
<stop stop-color="#0DB02B"/>
<stop offset="1" stop-color="#28A9E2"/>
</linearGradient>
<linearGradient id="paint70_linear_799_1627" x1="1017.85" y1="135.757" x2="1004" y2="135.757" gradientUnits="userSpaceOnUse">
<stop stop-color="#0DB02B"/>
<stop offset="1" stop-color="#28A9E2"/>
</linearGradient>
<linearGradient id="paint71_linear_799_1627" x1="1017.85" y1="135.757" x2="1004" y2="135.757" gradientUnits="userSpaceOnUse">
<stop stop-color="#0DB02B"/>
<stop offset="1" stop-color="#28A9E2"/>
</linearGradient>
<linearGradient id="paint72_linear_799_1627" x1="1025.84" y1="99.2409" x2="1014.36" y2="99.2409" gradientUnits="userSpaceOnUse">
<stop stop-color="#0DB02B"/>
<stop offset="1" stop-color="#28A9E2"/>
</linearGradient>
<linearGradient id="paint73_linear_799_1627" x1="1025.84" y1="99.2409" x2="1014.36" y2="99.2409" gradientUnits="userSpaceOnUse">
<stop stop-color="#0DB02B"/>
<stop offset="1" stop-color="#28A9E2"/>
</linearGradient>
<linearGradient id="paint74_linear_799_1627" x1="1148" y1="145.483" x2="1145" y2="145.483" gradientUnits="userSpaceOnUse">
<stop stop-color="#0DB02B"/>
<stop offset="1" stop-color="#28A9E2"/>
</linearGradient>
</defs>
</svg>