<svg width="676" height="938" viewBox="0 0 676 938" fill="none" xmlns="http://www.w3.org/2000/svg">
<rect x="4" y="111" width="668" height="823" stroke="black" stroke-width="8"/>
<rect x="62" y="168" width="553" height="708" fill="#67A2CF"/>
<path d="M88 875.5L339.5 168H614.5L342 875.5H88Z" fill="#A9D0DC"/>
<line x1="342" y1="168" x2="342" y2="876" stroke="black" stroke-width="8"/>
<line x1="67" y1="395" x2="615" y2="395" stroke="black" stroke-width="8"/>
<line x1="73" y1="628" x2="615" y2="628" stroke="black" stroke-width="8"/>
<path d="M209.357 64.1429H186.143V87.3571C186.143 88.5885 185.654 89.7694 184.783 90.6401C183.912 91.5108 182.731 92 181.5 92C180.269 92 179.088 91.5108 178.217 90.6401C177.346 89.7694 176.857 88.5885 176.857 87.3571V64.1429H153.643C152.411 64.1429 151.231 63.6537 150.36 62.783C149.489 61.9123 149 60.7314 149 59.5C149 58.2686 149.489 57.0877 150.36 56.217C151.231 55.3463 152.411 54.8571 153.643 54.8571H176.857V31.6429C176.857 30.4115 177.346 29.2306 178.217 28.3599C179.088 27.4892 180.269 27 181.5 27C182.731 27 183.912 27.4892 184.783 28.3599C185.654 29.2306 186.143 30.4115 186.143 31.6429V54.8571H209.357C210.589 54.8571 211.769 55.3463 212.64 56.217C213.511 57.0877 214 58.2686 214 59.5C214 60.7314 213.511 61.9123 212.64 62.783C211.769 63.6537 210.589 64.1429 209.357 64.1429Z" fill="black"/>
<path d="M239 114V49C239 24.6995 219.301 5 195 5H168C143.699 5 124 24.6995 124 49V114" stroke="black" stroke-width="10"/>
<path d="M471 60C471 58.6739 471.467 57.4021 472.297 56.4645C473.128 55.5268 474.254 55 475.429 55H528.571C529.746 55 530.872 55.5268 531.703 56.4645C532.533 57.4021 533 58.6739 533 60C533 61.3261 532.533 62.5979 531.703 63.5355C530.872 64.4732 529.746 65 528.571 65H475.429C474.254 65 473.128 64.4732 472.297 63.5355C471.467 62.5979 471 61.3261 471 60Z" fill="black"/>
<path d="M560 114V49C560 24.6995 540.301 5 516 5H489C464.699 5 445 24.6995 445 49V114" stroke="black" stroke-width="10"/>
</svg>
